<?xml version="1.0" encoding="UTF-8" standalone="no"?> <svg xmlns:inkscape="http://www.inkscape.org/namespaces/inkscape" xmlns:sodipodi="http://sodipodi.sourceforge.net/DTD/sodipodi-0.dtd" xmlns="http://www.w3.org/2000/svg" xmlns:svg="http://www.w3.org/2000/svg" xmlns:rdf="http://www.w3.org/1999/02/22-rdf-syntax-ns#" xmlns:dc="http://purl.org/dc/elements/1.1/" xmlns:x="adobe:ns:meta/" xmlns:xmp="http://ns.adobe.com/xap/1.0/" xmlns:xmpGImg="http://ns.adobe.com/xap/1.0/g/img/" xmlns:xmpMM="http://ns.adobe.com/xap/1.0/mm/" xmlns:stRef="http://ns.adobe.com/xap/1.0/sType/ResourceRef#" xmlns:stEvt="http://ns.adobe.com/xap/1.0/sType/ResourceEvent#" xmlns:illustrator="http://ns.adobe.com/illustrator/1.0/" xmlns:xmpTPg="http://ns.adobe.com/xap/1.0/t/pg/" xmlns:stDim="http://ns.adobe.com/xap/1.0/sType/Dimensions#" xmlns:xmpG="http://ns.adobe.com/xap/1.0/g/" xmlns:pdf="http://ns.adobe.com/pdf/1.3/" version="1.1" id="Layer_1" x="0px" y="0px" viewBox="0 0 492.33 149.31" style="enable-background:new 0 0 492.33 149.31;" xml:space="preserve" sodipodi:docname="Opulo (1).svg" inkscape:version="1.1.1 (c3084ef, 2021-09-22)"><defs id="defs130"></defs> <metadata id="metadata107"> </metadata> <path d="M240.06,67.75c-0.44,39.08-48.26,58.32-75.36,29.83c-16.7-16.65-15.97-45.95,1.53-61.76 C194.01,9.27,240.07,29.3,240.06,67.75z M196.23,37.65c-16.75,0.14-29.36,13.24-29.85,28.73c0.59,41.25,57.63,40.38,59.73,2.2 C226.64,50.97,212.62,37.68,196.23,37.65z" id="path109"></path> <path d="M248.69,99.76c0-14.11,0-43.09,0-43.09s18.2,0.01,26.84,0c18.5,0,28.42,12.51,28.42,26.65c0,15.46-9.98,27.38-26.54,27.38 c-2.84,0-13.28,0-13.28,0l0.02,32.45l-15.48,0.02C248.67,143.17,248.69,113.94,248.69,99.76z M264.15,83.3c0,4.38,0,13.84,0,13.84 s6.89-0.05,11.29-0.05c7.82,0,15.29-3.43,15.29-13.49c0-10.85-6.49-14.07-15.49-14.07c-3.42-0.04-11.1-0.02-11.1-0.02 S264.15,78.97,264.15,83.3z" id="path111"></path> <path d="M363.66,110.69c-5.84,0-25.88,0.03-30.07,0.03c-13.35,0-20.7-10.65-20.7-23.35c0-10-0.02-30.7-0.02-30.7h15.07 c0,0-0.02,20.23-0.02,30.02c0,7.35,3.55,10.18,14.49,10.18c1.5,0,5.98,0,5.98,0l-0.02-40.2h15.28 C363.66,56.67,363.66,104.36,363.66,110.69z" id="path113"></path> <path d="M424.82,110.71c-14.74,0-27.5-12.05-27.03-27.99c0.41-13.8,11.85-26.55,28.08-26.06c13.73,0.42,26.49,11.83,25.98,28.07 C451.39,98.67,439.97,110.62,424.82,110.71z M437.99,83.75c-0.07-7.37-5.89-13.03-12.83-13.21c-7.77-0.2-13.47,5.94-13.63,12.82 c-0.19,7.74,5.95,13.44,12.85,13.61C432.04,97.16,437.96,91,437.99,83.75z" id="path115"></path> <path d="M373.64,23.94h15.46c0,28.32,0.01,58.47,0,86.77c-4.87,0.01-15.48,0.02-15.48,0.02C373.65,96.57,373.64,23.94,373.64,23.94z " id="path117"></path> <g id="Sketch_00000163793952748931256020000003875778274186330264_" transform="translate(28.560000,28.560000) scale(1,-1)"> <path d="M51,20.74v-6.47c26.84-1.61,48.25-23.02,49.86-49.86h6.47v-6.38h-6.47C99.25-68.82,77.84-90.23,51-91.85v-6.47h-6.38v6.47 C17.78-90.23-3.63-68.82-5.24-41.98h0h-6.47v6.38h6.47c1.61,26.84,23.02,48.25,49.86,49.86v6.47H51 M44.62,7.87 C21.3,6.28,2.74-12.28,1.15-35.6H30.8v-6.38H1.15C2.74-65.3,21.3-83.86,44.62-85.45v10.52H51v-10.52 c23.32,1.59,41.88,20.16,43.47,43.47H83.95v6.38h10.52C92.88-12.28,74.32,6.28,51,7.87v-29.65h-6.38V7.87" id="path119"></path> <path id="Sketch_w0002_00000062871477408809884110000011827936560669940638_" d="M37.18-35.6v-6.38h7.44v-7.44H51v7.44h7.44v6.38 H51v7.44h-6.38v-7.44H37.18"></path> </g> <path d="m 451.50118,52.563202 v 7.19 h -1.65 v -7.19 h -2.6 v -1.34 h 6.88 v 1.34 z" id="path123"></path> <path d="m 457.89118,54.423202 0.92,-3.21 h 2.04 v 8.53 h -1.51 v -2.53 l 0.07,-3.99 -1.12,3.7 h -0.81 l -1,-3.54 0.07,3.83 v 2.53 h -1.51 v -8.53 h 2.04 z" id="path125"></path> </svg> 